<?xml version="1.0" encoding="utf-8"?><svg xmlns="http://www.w3.org/2000/svg" xmlns:xlink="http://www.w3.org/1999/xlink" width="1920" height="722" preserveAspectRatio="xMidYMid" viewBox="0 0 1920 722" style="z-index:1;margin-right:-2px;display:block;background-repeat-y:initial;background-repeat-x:initial;background-color:rgb(255, 255, 255);animation-play-state:paused" ><g transform="translate(960,361) scale(1,1) translate(-960,-361)" style="transform:matrix(1, 0, 0, 1, 0, 0);animation-play-state:paused" ><linearGradient id="lg-0.9572755506787214" x1="0" x2="1" y1="0" y2="0" style="animation-play-state:paused" ><stop stop-color="#3a4eff" offset="0" style="animation-play-state:paused" ></stop>

  
<stop stop-color="#8007d0" offset="1" style="animation-play-state:paused" ></stop></linearGradient>
<path d="M 0 0 M 0 620.705 Q 192 582.784 384 580.961 T 768 634.711 T 1152 554.012 T 1536 537.159 T 1920 479.674 L 1920 171.807 Q 1728 174.324 1536 165.463 T 1152 191.388 T 768 133.794 T 384 81.6788 T 0 44.8576 Z" fill="url(#lg-0.9572755506787214)" opacity="0.4" style="opacity:0.4;animation-play-state:paused" ></path>
<path d="M 0 0 M 0 635.971 Q 192 619.76 384 613.81 T 768 627.059 T 1152 568.577 T 1536 534.08 T 1920 483.803 L 1920 176.943 Q 1728 190.322 1536 185.743 T 1152 127.114 T 768 85.5776 T 384 96.3049 T 0 79.3383 Z" fill="url(#lg-0.9572755506787214)" opacity="0.4" style="opacity:0.4;animation-play-state:paused" ></path>
<path d="M 0 0 M 0 639.054 Q 192 614.947 384 613.483 T 768 607.906 T 1152 590.189 T 1536 533.049 T 1920 497.961 L 1920 220.772 Q 1728 177.487 1536 174.135 T 1152 149.157 T 768 158.028 T 384 113.717 T 0 86.4619 Z" fill="url(#lg-0.9572755506787214)" opacity="0.4" style="opacity:0.4;animation-play-state:paused" ></path>
<path d="M 0 0 M 0 647.336 Q 192 605.721 384 601.189 T 768 623.553 T 1152 597.87 T 1536 546.905 T 1920 528.896 L 1920 192.986 Q 1728 161.219 1536 157.652 T 1152 184.839 T 768 132.308 T 384 126.631 T 0 86.372 Z" fill="url(#lg-0.9572755506787214)" opacity="0.4" style="opacity:0.4;animation-play-state:paused" ></path></g></svg>