<?xml version="1.0" encoding="utf-8"?><svg xmlns="http://www.w3.org/2000/svg" xmlns:xlink="http://www.w3.org/1999/xlink" width="1920" height="800" preserveAspectRatio="xMidYMid" viewBox="0 0 1920 800" style="z-index:1;margin-right:-2px;display:block;background-repeat-y:initial;background-repeat-x:initial;background-color:rgb(255, 255, 255);animation-play-state:paused" ><g transform="translate(960,400) scale(1,1) translate(-960,-400)" style="transform:matrix(1, 0, 0, 1, 0, 0);animation-play-state:paused" ><linearGradient id="lg-0.054999522573371484" x1="0" x2="1" y1="0" y2="0" style="animation-play-state:paused" ><stop stop-color="#5364ff" offset="0" style="animation-play-state:paused" ></stop>

  
<stop stop-color="#8432dd" offset="1" style="animation-play-state:paused" ></stop></linearGradient>
<path d="M 0 0 M 0 726.813 Q 192 678.903 384 672.766 T 768 686.314 T 1152 640.372 T 1536 597.548 T 1920 595.298 L 1920 176.616 Q 1728 235.359 1536 227.713 T 1152 190.006 T 768 115.576 T 384 142.749 T 0 95.757 Z" fill="url(#lg-0.054999522573371484)" opacity="0.4" style="opacity:0.4;animation-play-state:paused" ></path>
<path d="M 0 0 M 0 695.511 Q 192 708.617 384 701.503 T 768 647.613 T 1152 649.505 T 1536 597.786 T 1920 581.977 L 1920 246.107 Q 1728 241.89 1536 234.463 T 1152 139.011 T 768 112.029 T 384 99.7653 T 0 42.6963 Z" fill="url(#lg-0.054999522573371484)" opacity="0.4" style="opacity:0.4;animation-play-state:paused" ></path>
<path d="M 0 0 M 0 753.397 Q 192 699.79 384 692.443 T 768 637.305 T 1152 612.503 T 1536 634.413 T 1920 576.667 L 1920 216.935 Q 1728 198.046 1536 190.409 T 1152 136.298 T 768 167.451 T 384 108.271 T 0 36.5787 Z" fill="url(#lg-0.054999522573371484)" opacity="0.4" style="opacity:0.4;animation-play-state:paused" ></path>
<path d="M 0 0 M 0 701.823 Q 192 669.595 384 663.376 T 768 669.284 T 1152 634.758 T 1536 612.882 T 1920 542.094 L 1920 185.593 Q 1728 183.942 1536 181.485 T 1152 156.664 T 768 128.737 T 384 87.2201 T 0 90.8414 Z" fill="url(#lg-0.054999522573371484)" opacity="0.4" style="opacity:0.4;animation-play-state:paused" ></path></g></svg>