<?xml version="1.0" encoding="utf-8"?><svg xmlns="http://www.w3.org/2000/svg" xmlns:xlink="http://www.w3.org/1999/xlink" width="1920" height="1000" preserveAspectRatio="xMidYMid" viewBox="0 0 1920 1000" style="z-index:1;margin-right:-2px;display:block;background-repeat-y:initial;background-repeat-x:initial;background-color:rgb(255, 255, 255);animation-play-state:paused" ><g transform="translate(960,500) scale(1,1) translate(-960,-500)" style="transform:matrix(1, 0, 0, 1, 0, 0);animation-play-state:paused" ><linearGradient id="lg-0.5689092938913634" x1="0" x2="1" y1="0" y2="0" style="animation-play-state:paused" ><stop stop-color="#5364ff" offset="0" style="animation-play-state:paused" ></stop>

  
<stop stop-color="#8432dd" offset="1" style="animation-play-state:paused" ></stop></linearGradient>
<path d="M 0 0 M 0 845.321 Q 192 891.167 384 889.946 T 768 781.317 T 1152 807.87 T 1536 785.756 T 1920 712.916 L 1920 247.998 Q 1728 212.965 1536 210.11 T 1152 221.771 T 768 165.952 T 384 110.242 T 0 158.93 Z" fill="url(#lg-0.5689092938913634)" opacity="0.4" style="opacity:0.4;animation-play-state:paused" ></path>
<path d="M 0 0 M 0 861.104 Q 192 902.486 384 898.434 T 768 816.677 T 1152 787.861 T 1536 757.824 T 1920 723.031 L 1920 267.158 Q 1728 240.587 1536 238.601 T 1152 201.366 T 768 191.653 T 384 119.425 T 0 118.176 Z" fill="url(#lg-0.5689092938913634)" opacity="0.4" style="opacity:0.4;animation-play-state:paused" ></path>
<path d="M 0 0 M 0 905.989 Q 192 890.912 384 883.739 T 768 822.517 T 1152 757.769 T 1536 722.944 T 1920 731.582 L 1920 259.618 Q 1728 238.489 1536 237.965 T 1152 203.387 T 768 195.587 T 384 154.247 T 0 64.3279 Z" fill="url(#lg-0.5689092938913634)" opacity="0.4" style="opacity:0.4;animation-play-state:paused" ></path>
<path d="M 0 0 M 0 945.653 Q 192 900.15 384 897.466 T 768 821.726 T 1152 783.072 T 1536 756.465 T 1920 737.943 L 1920 332.731 Q 1728 273.375 1536 271.249 T 1152 208.697 T 768 169.165 T 384 89.5381 T 0 129.19 Z" fill="url(#lg-0.5689092938913634)" opacity="0.4" style="opacity:0.4;animation-play-state:paused" ></path></g></svg>